<svg xmlns="http://www.w3.org/2000/svg" viewBox="0 0 46.92 52.69"><defs><style>.cls-1{fill:#e62a28;}</style></defs><g id="Calque_2" data-name="Calque 2"><g id="Calque_1-2" data-name="Calque 1"><path class="cls-1" d="M31,8.79l-7.24,7.69-2.46-2.59,2.41-2.6C16.11,10.56,8.28,16.45,6,24.43A18.1,18.1,0,0,0,37.92,40.08c5-6.66,5.45-17.59-3.27-25.22l3.09-3.93c6.77,4.26,11.11,14.72,8.32,24.53C42.8,47,32.6,53.69,20.47,52.57,10.2,51.63.94,42.21.1,31.82A24.32,24.32,0,0,1,2.22,19.13,23.3,23.3,0,0,1,10.89,9.4C14.63,7,18.79,6,23.73,5.59L20.41,3.15,23.36,0Z"/></g></g></svg>