<svg xmlns="http://www.w3.org/2000/svg" viewBox="0 0 47.93 53.69"><defs><style>.cls-1{fill:#e62a28;}</style></defs><g id="Calque_2" data-name="Calque 2"><g id="Calque_1-2" data-name="Calque 1"><path class="cls-1" d="M24.37.5A.49.49,0,0,0,24,.66L21.05,3.81a.48.48,0,0,0-.13.39.49.49,0,0,0,.2.36l2.25,1.65A25.66,25.66,0,0,0,11.62,10a23.84,23.84,0,0,0-8.85,9.94A24.6,24.6,0,0,0,.6,32.86C1.46,43.4,11,53.11,21.43,54.07q1.3.12,2.58.12a23.87,23.87,0,0,0,23.54-17.6c3-10.47-2-21-8.55-25.08a.48.48,0,0,0-.65.11l-3.09,3.93a.49.49,0,0,0,.06.68c6.36,5.57,9.65,16.06,3.2,24.54a17.56,17.56,0,0,1-14,7.07,17.86,17.86,0,0,1-8-1.93,17.6,17.6,0,0,1-9-20.34c2.11-7.32,9.11-12.84,16-12.84h.17l-1.68,1.82a.51.51,0,0,0,0,.69l2.46,2.58a.52.52,0,0,0,.36.16h0a.52.52,0,0,0,.37-.16l7.23-7.69a.49.49,0,0,0,0-.67L24.74.67A.5.5,0,0,0,24.37.5Zm-.26,52.7c-.85,0-1.71,0-2.59-.12-10-.92-19.1-10.21-19.92-20.3A23.61,23.61,0,0,1,3.67,20.35a23,23,0,0,1,8.49-9.53c3.43-2.19,7.31-3.34,12.61-3.73a.5.5,0,0,0,.26-.9L22.16,4.08l2.19-2.33,7,8-6.56,7L23,14.89l2.09-2.26a.5.5,0,0,0,.1-.52.5.5,0,0,0-.42-.32c-.45,0-.91-.06-1.36-.06C16,11.73,8.76,17.45,6.5,25.29A18.63,18.63,0,0,0,16,46.81a18.94,18.94,0,0,0,8.48,2,18.54,18.54,0,0,0,14.82-7.46c6.69-8.81,3.48-19.65-3-25.58l2.52-3.2c6,4.07,10.52,13.9,7.73,23.72-3,10.46-11.64,16.88-22.47,16.88Z" transform="translate(-0.5 -0.5)"/></g></g></svg>