<svg width="196" height="95" viewBox="0 0 196 95" fill="none" xmlns="http://www.w3.org/2000/svg">
<path d="M0.994318 80.3889L0.501069 80.307L0.404467 80.8889H0.994318V80.3889ZM9.60511 80.3889V80.8889H10.0287L10.0983 80.4711L9.60511 80.3889ZM12.0114 65.9514V65.4514H11.5878L11.5182 65.8692L12.0114 65.9514ZM18.2756 65.9514L18.7446 65.7782L18.624 65.4514H18.2756V65.9514ZM23.6051 80.3889L23.1361 80.562L23.2567 80.8889H23.6051V80.3889ZM33.1108 80.3889V80.8889H33.8361L33.5781 80.211L33.1108 80.3889ZM27.0852 64.5593L26.8995 64.0951L26.443 64.2777L26.6179 64.7372L27.0852 64.5593ZM36.2131 52.9656L35.7197 52.8844L35.7197 52.8845L36.2131 52.9656ZM7.75568 39.6616V39.1616H7.33185L7.26243 39.5797L7.75568 39.6616ZM13.1648 59.0309L12.6717 58.9482L12.5739 59.5309H13.1648V59.0309ZM15.233 46.7014V46.2014H14.8098L14.7398 46.6187L15.233 46.7014ZM27.3438 52.9656L27.8373 53.0458L27.8374 53.0451L27.3438 52.9656ZM0.994318 80.8889H9.60511V79.8889H0.994318V80.8889ZM10.0983 80.4711L12.5046 66.0336L11.5182 65.8692L9.11192 80.3067L10.0983 80.4711ZM12.0114 66.4514H18.2756V65.4514H12.0114V66.4514ZM17.8065 66.1245L23.1361 80.562L24.0742 80.2157L18.7446 65.7782L17.8065 66.1245ZM23.6051 80.8889H33.1108V79.8889H23.6051V80.8889ZM33.5781 80.211L27.5525 64.3815L26.6179 64.7372L32.6435 80.5668L33.5781 80.211ZM27.2709 65.0236C32.4101 62.9679 35.7642 58.7822 36.7065 53.0466L35.7197 52.8845C34.8324 58.2853 31.7035 62.1735 26.8995 64.0951L27.2709 65.0236ZM36.7064 53.0468C37.3898 48.8958 36.5946 45.4 34.3554 42.9418C32.1216 40.4893 28.5342 39.1616 23.8239 39.1616V40.1616C28.3607 40.1616 31.634 41.439 33.6161 43.6151C35.5929 45.7854 36.3688 48.9416 35.7197 52.8844L36.7064 53.0468ZM23.8239 39.1616H7.75568V40.1616H23.8239V39.1616ZM7.26243 39.5797L0.501069 80.307L1.48757 80.4708L8.24893 39.7435L7.26243 39.5797ZM13.6579 59.1136L15.7261 46.7841L14.7398 46.6187L12.6717 58.9482L13.6579 59.1136ZM15.233 47.2014H21.0398V46.2014H15.233V47.2014ZM21.0398 47.2014C23.4506 47.2014 25.0274 47.7389 25.9312 48.6558C26.8188 49.556 27.1643 50.9343 26.8501 52.8861L27.8374 53.0451C28.1794 50.9202 27.8389 49.1664 26.6433 47.9537C25.4641 46.7576 23.5608 46.2014 21.0398 46.2014V47.2014ZM26.8502 52.8854C26.5385 54.8032 25.7477 56.1902 24.493 57.1087C23.2268 58.0356 21.4257 58.5309 19.0114 58.5309V59.5309C21.5487 59.5309 23.5857 59.0121 25.0837 57.9156C26.5932 56.8106 27.4928 55.1649 27.8373 53.0458L26.8502 52.8854ZM19.0114 58.5309H13.1648V59.5309H19.0114V58.5309ZM68.7621 65.3548L69.2555 65.4356L69.2555 65.4353L68.7621 65.3548ZM38.7734 65.0963L39.2667 65.178L39.2671 65.1758L38.7734 65.0963ZM47.3047 65.315L47.7982 65.3954L47.7982 65.3952L47.3047 65.315ZM60.2308 65.0565L60.7241 65.1384L60.7247 65.1348L60.2308 65.0565ZM51.2621 81.4855C60.7608 81.4855 67.6891 74.9969 69.2555 65.4356L68.2687 65.274C66.7726 74.4059 60.2179 80.4855 51.2621 80.4855V81.4855ZM69.2555 65.4353C70.0461 60.5906 69.2468 56.4602 66.9853 53.5301C64.7173 50.5916 61.0445 48.9457 56.2734 48.9457V49.9457C60.8092 49.9457 64.1563 51.5015 66.1937 54.1411C68.2375 56.7892 69.0292 60.6133 68.2686 65.2743L69.2555 65.4353ZM56.2734 48.9457C46.7555 48.9457 39.826 55.414 38.2798 65.0168L39.2671 65.1758C40.7436 56.0058 47.2971 49.9457 56.2734 49.9457V48.9457ZM38.2802 65.0146C37.4794 69.8497 38.2735 73.9758 40.5354 76.9037C42.8037 79.8399 46.4815 81.4855 51.2621 81.4855V80.4855C46.716 80.4855 43.364 78.9294 41.3268 76.2924C39.2833 73.6472 38.4965 69.8286 39.2667 65.178L38.2802 65.0146ZM52.1172 73.923C51.152 73.923 50.3702 73.7008 49.7472 73.3135C49.1242 72.9262 48.6325 72.3568 48.2739 71.6191C47.5497 70.1296 47.3787 67.971 47.7982 65.3954L46.8112 65.2346C46.3756 67.909 46.5228 70.3044 47.3746 72.0564C47.8039 72.9394 48.4147 73.6626 49.2192 74.1628C50.0236 74.6629 50.9943 74.923 52.1172 74.923V73.923ZM47.7982 65.3952C48.6612 60.0802 51.506 56.4088 55.4183 56.4088V55.4088C50.7397 55.4088 47.6982 59.7715 46.8112 65.2349L47.7982 65.3952ZM55.4183 56.4088C56.3831 56.4088 57.1631 56.6319 57.7842 57.0208C58.4054 57.4097 58.8956 57.9819 59.2535 58.7237C59.9762 60.2217 60.147 62.3914 59.737 64.9782L60.7247 65.1348C61.1499 62.4517 61.0025 60.0476 60.1542 58.2892C59.7265 57.4028 59.118 56.6761 58.3149 56.1732C57.5117 55.6704 56.5417 55.4088 55.4183 55.4088V56.4088ZM59.7376 64.9746C58.8551 70.289 56.0113 73.923 52.1172 73.923V74.923C56.7742 74.923 59.8168 70.6025 60.7241 65.1384L59.7376 64.9746ZM93.5206 67.3832L93.0274 67.301L93.0269 67.3041L93.5206 67.3832ZM82.3445 67.7809L81.8512 67.6989L81.8508 67.7018L82.3445 67.7809ZM85.3274 49.8434L85.8206 49.9255L85.9174 49.3434H85.3274V49.8434ZM76.8558 49.8434V49.3434H76.4327L76.3627 49.7607L76.8558 49.8434ZM73.5945 69.2923L73.1013 69.2096L73.1009 69.2126L73.5945 69.2923ZM92.2876 74.8406V74.3406H91.9862L91.8455 74.6072L92.2876 74.8406ZM92.6058 74.8406L93.0992 74.9219L93.195 74.3406H92.6058V74.8406ZM91.6911 80.3889L91.1977 80.3076L91.1019 80.8889H91.6911V80.3889ZM99.8246 80.3889V80.8889H100.248L100.318 80.4711L99.8246 80.3889ZM104.915 49.8434L105.409 49.9256L105.506 49.3434H104.915V49.8434ZM96.4439 49.8434V49.3434H96.0203L95.9507 49.7612L96.4439 49.8434ZM93.0269 67.3041C92.4104 71.1522 89.4828 73.1275 86.6797 73.1275V74.1275C89.9618 74.1275 93.3182 71.8074 94.0143 67.4623L93.0269 67.3041ZM86.6797 73.1275C85.1891 73.1275 84.1271 72.6129 83.4888 71.7554C82.8418 70.8864 82.5633 69.5759 82.8382 67.86L81.8508 67.7018C81.549 69.5854 81.8272 71.1982 82.6867 72.3526C83.5547 73.5186 84.9487 74.1275 86.6797 74.1275V73.1275ZM82.8377 67.863L85.8206 49.9255L84.8342 49.7614L81.8512 67.6989L82.8377 67.863ZM85.3274 49.3434H76.8558V50.3434H85.3274V49.3434ZM76.3627 49.7607L73.1013 69.2096L74.0876 69.375L77.3489 49.9261L76.3627 49.7607ZM73.1009 69.2126C72.5102 72.8687 73.0831 75.8935 74.6733 78.0164C76.2711 80.1495 78.8317 81.2866 82.0263 81.2866V80.2866C79.0759 80.2866 76.8439 79.2462 75.4737 77.4169C74.0959 75.5775 73.5253 72.8551 74.0881 69.372L73.1009 69.2126ZM82.0263 81.2866C86.7992 81.2866 90.7512 78.823 92.7298 75.074L91.8455 74.6072C90.0457 78.0173 86.4409 80.2866 82.0263 80.2866V81.2866ZM92.2876 75.3406H92.6058V74.3406H92.2876V75.3406ZM92.1125 74.7593L91.1977 80.3076L92.1844 80.4702L93.0992 74.9219L92.1125 74.7593ZM91.6911 80.8889H99.8246V79.8889H91.6911V80.8889ZM100.318 80.4711L105.409 49.9256L104.422 49.7612L99.3314 80.3067L100.318 80.4711ZM104.915 49.3434H96.4439V50.3434H104.915V49.3434ZM95.9507 49.7612L93.0274 67.301L94.0138 67.4654L96.9371 49.9256L95.9507 49.7612ZM135.257 80.6872L134.764 80.6051L134.763 80.6095L135.257 80.6872ZM140.388 49.8434L140.881 49.9255L140.978 49.3434H140.388V49.8434ZM131.976 49.8434V49.3434H131.551L131.482 49.7631L131.976 49.8434ZM131.141 54.9741V55.4741H131.566L131.634 55.0545L131.141 54.9741ZM130.803 54.9741L130.323 55.116L130.429 55.4741H130.803V54.9741ZM108.033 65.0565L107.539 64.9754L107.539 64.9754L108.033 65.0565ZM127.482 74.9798V74.4798H127.198L127.052 74.723L127.482 74.9798ZM127.839 74.9798L128.333 75.0606L128.428 74.4798H127.839V74.9798ZM126.925 80.5679L126.431 80.4871L126.43 80.4925L126.925 80.5679ZM113.859 82.9145L114.346 82.8005L114.243 82.3598L113.794 82.4187L113.859 82.9145ZM105.825 83.9684L105.76 83.4727L105.299 83.5332L105.326 83.9973L105.825 83.9684ZM116.703 65.0167L117.197 65.0968L117.197 65.0962L116.703 65.0167ZM129.53 65.0167L129.036 64.936L129.036 64.9366L129.53 65.0167ZM118.453 92.9798C122.869 92.9798 126.865 91.9749 129.929 89.938C133.003 87.8938 135.112 84.8243 135.751 80.7649L134.763 80.6095C134.169 84.3853 132.222 87.2121 129.375 89.1054C126.517 91.006 122.728 91.9798 118.453 91.9798V92.9798ZM135.75 80.7692L140.881 49.9255L139.895 49.7614L134.764 80.6051L135.75 80.7692ZM140.388 49.3434H131.976V50.3434H140.388V49.3434ZM131.482 49.7631L130.647 54.8938L131.634 55.0545L132.469 49.9238L131.482 49.7631ZM131.141 54.4741H130.803V55.4741H131.141V54.4741ZM131.282 54.8322C130.897 53.5316 130.186 52.0551 128.876 50.9023C127.556 49.7417 125.67 48.9457 123.007 48.9457V49.9457C125.455 49.9457 127.099 50.6711 128.215 51.6532C129.341 52.6431 129.972 53.9308 130.323 55.116L131.282 54.8322ZM123.007 48.9457C116.006 48.9457 109.28 54.391 107.539 64.9754L108.526 65.1376C110.206 54.9208 116.605 49.9457 123.007 49.9457V48.9457ZM107.539 64.9754C106.691 70.1346 107.453 74.0134 109.397 76.6141C111.349 79.2244 114.42 80.4514 117.976 80.4514V79.4514C114.651 79.4514 111.915 78.3119 110.198 76.0153C108.474 73.709 107.704 70.1403 108.526 65.1376L107.539 64.9754ZM117.976 80.4514C123.015 80.4514 126.315 77.9032 127.911 75.2365L127.052 74.723C125.626 77.1075 122.641 79.4514 117.976 79.4514V80.4514ZM127.482 75.4798H127.839V74.4798H127.482V75.4798ZM127.346 74.899L126.431 80.4871L127.418 80.6486L128.333 75.0606L127.346 74.899ZM126.43 80.4925C126.13 82.4648 125.277 83.7951 124.104 84.6418C122.919 85.4969 121.357 85.8946 119.587 85.8946V86.8946C121.495 86.8946 123.284 86.4669 124.689 85.4527C126.106 84.4301 127.083 82.8471 127.419 80.6432L126.43 80.4925ZM119.587 85.8946C117.775 85.8946 116.563 85.5063 115.765 84.9462C114.973 84.3911 114.542 83.635 114.346 82.8005L113.373 83.0284C113.615 84.0633 114.167 85.0472 115.191 85.7649C116.207 86.4775 117.639 86.8946 119.587 86.8946V85.8946ZM113.794 82.4187L105.76 83.4727L105.89 84.4642L113.924 83.4102L113.794 82.4187ZM105.326 83.9973C105.474 86.5489 106.635 88.8158 108.846 90.4325C111.046 92.0404 114.248 92.9798 118.453 92.9798V91.9798C114.385 91.9798 111.413 91.0698 109.436 89.6251C107.472 88.1893 106.455 86.2005 106.324 83.9396L105.326 83.9973ZM121.635 73.0878C119.699 73.0878 118.436 72.3366 117.72 71.0371C116.98 69.6948 116.777 67.6837 117.197 65.0968L116.21 64.9366C115.774 67.6196 115.949 69.8941 116.844 71.5198C117.764 73.1883 119.395 74.0878 121.635 74.0878V73.0878ZM117.197 65.0962C117.605 62.5612 118.473 60.4477 119.715 58.9784C120.947 57.5204 122.552 56.6872 124.499 56.6872V55.6872C122.229 55.6872 120.354 56.6735 118.951 58.3328C117.558 59.9806 116.637 62.2819 116.209 64.9373L117.197 65.0962ZM124.499 56.6872C126.382 56.6872 127.682 57.473 128.442 58.8388C129.22 60.2401 129.465 62.3185 129.036 64.936L130.023 65.0974C130.47 62.3655 130.247 60.0292 129.316 58.353C128.364 56.6414 126.712 55.6872 124.499 55.6872V56.6872ZM129.036 64.9366C128.61 67.563 127.682 69.6057 126.408 70.9839C125.143 72.3533 123.52 73.0878 121.635 73.0878V74.0878C123.807 74.0878 125.694 73.2313 127.143 71.6625C128.584 70.1025 129.575 67.8596 130.023 65.0969L129.036 64.9366ZM171.271 71.6389L171.738 71.8175L171.98 71.1852L171.305 71.14L171.271 71.6389ZM163.536 71.1218L163.569 70.623L163.248 70.6015L163.095 70.8848L163.536 71.1218ZM151.345 67.5025L150.853 67.4131L150.852 67.423L151.345 67.5025ZM151.385 67.2838V66.7838H150.968L150.893 67.1943L151.385 67.2838ZM172.186 67.2838V67.7838H172.611L172.68 67.3639L172.186 67.2838ZM172.564 64.9571L172.071 64.8749L172.07 64.8769L172.564 64.9571ZM143.351 65.2554L143.844 65.3384L143.844 65.3376L143.351 65.2554ZM152.339 62.0338L151.85 61.9296L151.722 62.5338H152.339V62.0338ZM165.047 62.0338V62.5338H165.472L165.54 62.1147L165.047 62.0338ZM155.879 81.4855C163.643 81.4855 169.483 77.7137 171.738 71.8175L170.804 71.4603C168.724 76.8993 163.309 80.4855 155.879 80.4855V81.4855ZM171.305 71.14L163.569 70.623L163.502 71.6207L171.238 72.1378L171.305 71.14ZM163.095 70.8848C161.946 73.0196 159.749 74.1616 157.072 74.1616V75.1616C160.044 75.1616 162.62 73.8775 163.976 71.3589L163.095 70.8848ZM157.072 74.1616C154.985 74.1616 153.532 73.5971 152.677 72.5673C151.819 71.5349 151.463 69.9156 151.839 67.5821L150.852 67.423C150.452 69.902 150.791 71.8622 151.908 73.2062C153.026 74.5528 154.825 75.1616 157.072 75.1616V74.1616ZM151.837 67.592L151.877 67.3732L150.893 67.1943L150.853 67.4131L151.837 67.592ZM151.385 67.7838H172.186V66.7838H151.385V67.7838ZM172.68 67.3639L173.057 65.0372L172.07 64.8769L171.693 67.2036L172.68 67.3639ZM173.057 65.0393C173.938 59.7566 173.015 55.7153 170.746 52.9888C168.477 50.2626 164.94 48.9457 160.791 48.9457V49.9457C164.737 49.9457 167.951 51.1941 169.977 53.6285C172.003 56.0624 172.92 59.7768 172.071 64.8749L173.057 65.0393ZM160.791 48.9457C151.527 48.9457 144.463 55.5384 142.858 65.1732L143.844 65.3376C145.38 56.1201 152.078 49.9457 160.791 49.9457V48.9457ZM142.858 65.1723C142.027 70.1035 142.809 74.1952 145.085 77.063C147.365 79.9366 151.07 81.4855 155.879 81.4855V80.4855C151.282 80.4855 147.908 79.0116 145.868 76.4414C143.823 73.8652 143.044 70.0919 143.844 65.3384L142.858 65.1723ZM152.829 62.1379C153.499 58.9896 156.551 56.2696 159.936 56.2696V55.2696C156.043 55.2696 152.612 58.3564 151.85 61.9296L152.829 62.1379ZM159.936 56.2696C161.642 56.2696 162.914 56.8775 163.698 57.8506C164.485 58.8277 164.834 60.2411 164.553 61.9529L165.54 62.1147C165.856 60.1872 165.48 58.4685 164.477 57.2234C163.471 55.9741 161.889 55.2696 159.936 55.2696V56.2696ZM165.047 61.5338H152.339V62.5338H165.047V61.5338Z" fill="#F21F1F"/>
<path d="M0.994318 54H9.60511L12.0114 39.5625H18.2756L23.6051 54H33.1108L27.0852 38.1705C32.0568 36.1818 35.2983 32.1449 36.2131 26.5767C37.5455 18.483 33.071 13.2727 23.8239 13.2727H7.75568L0.994318 54ZM13.1648 32.642L15.233 20.3125H21.0398C25.9716 20.3125 28 22.5 27.3438 26.5767C26.6875 30.6136 23.9631 32.642 19.0114 32.642H13.1648ZM51.2621 54.5966C60.4893 54.5966 67.2308 48.3125 68.7621 38.9659C70.3132 29.4602 65.5803 23.0568 56.2734 23.0568C47.0263 23.0568 40.2848 29.321 38.7734 38.7074C37.2024 48.1932 41.9354 54.5966 51.2621 54.5966ZM52.1172 48.0341C47.9411 48.0341 46.4496 44.1761 47.3047 38.9261C48.1797 33.5369 51.1229 29.5199 55.4183 29.5199C59.5945 29.5199 61.0661 33.3977 60.2308 38.6676C59.3359 44.0568 56.3928 48.0341 52.1172 48.0341ZM93.5206 40.9943C92.8643 45.0909 89.7223 47.2386 86.6797 47.2386C83.4581 47.2386 81.7678 44.9915 82.3445 41.392L85.3274 23.4545H76.8558L73.5945 42.9034C72.4411 50.0426 75.8814 54.3977 82.0263 54.3977C86.62 54.3977 90.3984 52.0312 92.2876 48.4517H92.6058L91.6911 54H99.8246L104.915 23.4545H96.4439L93.5206 40.9943ZM118.453 66.0909C127.143 66.0909 134.024 62.1335 135.257 54.2983L140.388 23.4545H131.976L131.141 28.5852H130.803C130.067 26.0994 128.118 23.0568 123.007 23.0568C116.305 23.0568 109.743 28.267 108.033 38.6676C106.362 48.8295 111.095 53.5625 117.976 53.5625C122.828 53.5625 125.97 51.1165 127.482 48.5909H127.839L126.925 54.179C126.288 58.3551 123.266 60.0057 119.587 60.0057C115.828 60.0057 114.297 58.3949 113.859 56.5256L105.825 57.5795C106.104 62.392 110.18 66.0909 118.453 66.0909ZM121.635 47.1989C117.459 47.1989 115.848 43.8977 116.703 38.6278C117.538 33.4375 120.283 29.7983 124.499 29.7983C128.595 29.7983 130.405 33.2784 129.53 38.6278C128.655 44.017 125.692 47.1989 121.635 47.1989ZM155.879 54.5966C163.476 54.5966 169.104 50.9176 171.271 45.25L163.536 44.733C162.283 47.0597 159.896 48.2727 157.072 48.2727C152.737 48.2727 150.57 45.9261 151.345 41.1136L151.385 40.8949H172.186L172.564 38.5682C174.294 28.1875 168.885 23.0568 160.791 23.0568C151.803 23.0568 144.922 29.4403 143.351 38.8665C141.72 48.5511 146.473 54.5966 155.879 54.5966ZM152.339 35.6449C153.055 32.2841 156.297 29.3807 159.936 29.3807C163.595 29.3807 165.643 32.0057 165.047 35.6449H152.339Z" fill="#F21F1F"/>
<path d="M179.5 0C179.5 9.1127 172.113 16.5 163 16.5C172.113 16.5 179.5 23.8873 179.5 33C179.5 23.8873 186.887 16.5 196 16.5C186.887 16.5 179.5 9.1127 179.5 0Z" fill="black"/>
</svg>
